<svg viewBox="0 0 32 32" xmlns="http://www.w3.org/2000/svg"><path d="M31.3941 14.57463 17.42345.60398a2.06053 2.06053 0 0 0-2.91493 0l-2.9 2.90132 3.6792 3.68a2.448 2.448 0 0 1 3.0992 3.12053l3.54665 3.54666a2.4472 2.4472 0 0 1 2.53467.58213 2.45173 2.45173 0 0 1 0 3.46747 2.45466 2.45466 0 0 1-3.47013 0 2.45333 2.45333 0 0 1-.532-2.66747l-3.308-3.30746v8.70533c1.50453.74345 1.8344 2.74506.64747 3.93172a2.4512 2.4512 0 0 1-3.4672 0 2.45173 2.45173 0 0 1 0-3.46799 2.4584 2.4584 0 0 1 .8024-.536v-8.78506a2.45493 2.45493 0 0 1-1.33013-3.216l-3.62773-3.628-9.58025 9.57786a2.06346 2.06346 0 0 0 0 2.91494L14.57385 31.397a2.06293 2.06293 0 0 0 2.91466 0l13.90852-13.90718a2.06346 2.06346 0 0 0 0-2.9152"/></svg>