<svg viewBox="0 0 32 32" xmlns="http://www.w3.org/2000/svg"><path d="M15.13491 3.61923c-3.60074 0-6.64864.0348-9.10774.34652C2.7719 4.38172.0012 6.87447.0012 11.4809H0c0 4.67494.2423 8.17325 2.11267 11.32443 2.11261 3.60171 5.64486 5.57544 10.21654 5.57544h1.1079c5.61018 0 8.65804-2.97845 10.18205-5.33324.65808-1.03939 1.14234-2.07776 1.45411-3.11714C29.0563 19.58484 32 16.2947 32 12.27705v-.55395c0-4.32944-2.83939-7.3424-7.72288-7.8269-2.07786-.20749-3.53202-.27697-9.14222-.27697zm8.72736 5.64528c1.76624 0 2.73615 1.0395 2.73615 2.70139 0 1.6619-.96991 2.66632-2.73615 2.66632-.55345 0-.86524-.31111-.8657-.72661V9.992c0-.41595.31184-.7275.8657-.7275zm-13.85316.24131c1.42062 0 2.42441.72672 3.08267 1.73139.72762-1.00368 1.69752-1.73139 3.11715-1.73139 2.38963 0 4.05149 1.97373 4.05149 4.19057 0 2.04408-1.14269 3.8101-2.63185 5.19505-.93516.9353-2.45815 1.90503-3.49754 2.52842-.278.17285-.6234.27698-1.03925.27698-.34652 0-.65826-.10413-.97-.27698-1.03843-.62338-2.56241-1.59311-3.5323-2.52842-1.4544-1.38585-2.59708-3.15196-2.59708-5.19505h-.0009c0-2.21684 1.59327-4.19057 4.0176-4.19057z" fill="#000"/></svg>