<svg width="64" height="64" aria-hidden="true" xmlns="http://www.w3.org/2000/svg" viewBox="0 0 16 16" fill="#fff">
	<defs>
		<clipPath clipPathUnits="userSpaceOnUse" id="a">
			<path d="M0 0v9.471191c.343357-.144256.633638-.452607.882813-.95166.281575-.563946.481548-1.34978.585937-2.240234.010813-.09224.02884-.284009.03125-.308594V.5l3.75 5h1.441406L9.298828.283203l.197266 1.658203s.766914 6.448685.998047 7.984375l.005859.03711V10c.000725.665858-.364069 1.20979-.824219 1.554688-.46015.344895-1.014673.542892-1.552734.677734-.69102.173175-.966216.150485-1.363281.171875L8.558594 16H16V0Z"></path>
		</clipPath>
	</defs>
	<path d="M8 1.527344c-.784885 0-1.499352.279298-2.166016.529297l-.30664.115234v7.009766l.638672-.238282C6.832679 8.693361 7.451562 8.472656 8 8.472656c.448217 0 1.08501.22161 1.77539.472656.69038.251048 1.439725.527344 2.22461.527344.738563 0 1.383456-.244843 2-.489258V16h.5V8.317871C13.666669 8.61084 12.833328 9 12 9c-1.333327 0-2.833341-1-4-1-.666662 0-1.333336.250001-2 .5v-6c.666664-.249999 1.333338-.5 2-.5 1.166659 0 2.666673 1 4 1 1.166661 0 2.333338-.765626 3.5-.957031V16h-.25v.472656h1.222656V1.527344H16c-.784885 0-1.499349.279298-2.166016.529297-.666662.249999-1.285547.470703-1.833984.470703-.548437 0-1.215774-.223706-1.900391-.472656C9.414997 1.805737 8.718442 1.527343 8 1.527343Z" clip-path="url(#a)"></path>
	<path d="M2 2v4s-.022086.226886-.035156.338379C1.747234 8.194622 1.145757 9.673186 0 10v.430664h.070313l.066406-.019531c.12763-.036406.248247-.085451.363281-.143555.065279-.03359.129044-.06972.191406-.10791a3.04819 3.04819 0 0 0 .022461-.01416c.444231-.277643.810736-.672517 1.063477-1.178711.360033-.721084.570373-1.604524.683593-2.570313.014644-.124907.03711-.347656.03711-.347656L2.5 6.023438V3.5l2.25 3h2.558594l1.40039-2.800781c.20228 1.691829.590422 4.969225.789063 6.30664-.00152.32736-.134265.532474-.421875.748047-.289642.217096-.735056.393933-1.197266.509766C6.954487 11.495337 6 11.5 6 11.5l-.808594.001953L7.440918 16H8l-2-4s4.0022-.005402 4-2c-.237504-1.577469-1-8-1-8L7 6H5L2 2z"></path>
</svg>