
<svg width="64" height="64"  viewBox="0 0 120 120" xmlns="http://www.w3.org/2000/svg"><defs><clipPath clipPathUnits="userSpaceOnUse" id="a"><path d="m117.728 54.656-52.39-52.39a7.727 7.727 0 0 0-10.931 0l-10.875 10.88 13.797 13.8a9.18 9.18 0 0 1 11.622 11.702l13.3 13.3a9.177 9.177 0 0 1 9.505 2.183 9.194 9.194 0 0 1 0 13.003 9.205 9.205 0 0 1-13.013 0 9.2 9.2 0 0 1-1.995-10.003L64.343 44.728v32.645c5.642 2.788 6.879 10.294 2.428 14.744a9.192 9.192 0 0 1-13.002 0 9.194 9.194 0 0 1 0-13.005 9.219 9.219 0 0 1 3.009-2.01V44.158a9.206 9.206 0 0 1-4.988-12.06L38.186 18.493 2.26 54.41a7.738 7.738 0 0 0 0 10.931l52.392 52.399a7.736 7.736 0 0 0 10.93 0l52.157-52.152a7.738 7.738 0 0 0 0-10.932" stroke-width="1.306"/></clipPath></defs><g clip-path="url(#a)" paint-order="markers stroke fill"><rect width="120" height="22.5" ry="0" fill="#fe9494"/><rect width="120" height="22.5" y="20" ry="0" fill="#ffc783"/><rect width="120" height="22.5" y="40" ry="0" fill="#fff683"/><rect width="120" height="22.5" y="60.001" ry="0" fill="#69cb86"/><rect width="120" height="22.5" y="80.001" ry="0" fill="#83a8ff"/><rect width="120" height="19.999" y="100.002" ry="0" fill="#c56ad4"/></g></svg>
